<svg xmlns="http://www.w3.org/2000/svg" width="650" height="491" viewBox="0 0 650 491" fill="none"><g clip-path="url(#clip0_194_16207)"><path d="M8.86719 483.024C8.87016 483.189 8.90567 483.352 8.97167 483.503C9.03766 483.654 9.13286 483.791 9.2518 483.906C9.37075 484.02 9.5111 484.11 9.66484 484.17C9.81857 484.231 9.98266 484.26 10.1477 484.256H648.72C648.886 484.263 649.052 484.237 649.207 484.178C649.363 484.119 649.505 484.03 649.625 483.915C649.745 483.799 649.841 483.661 649.906 483.508C649.972 483.355 650.005 483.191 650.005 483.024C650.005 482.858 649.972 482.693 649.906 482.54C649.841 482.387 649.745 482.249 649.625 482.134C649.505 482.019 649.363 481.929 649.207 481.87C649.052 481.812 648.886 481.785 648.72 481.792H10.1477C9.98272 481.789 9.81869 481.818 9.665 481.878C9.51132 481.938 9.37099 482.028 9.25206 482.143C9.13313 482.257 9.03792 482.394 8.97187 482.545C8.90583 482.696 8.87026 482.859 8.86719 483.024Z" fill="#7F8993"></path><path d="M334.274 361.421C333.441 366.463 330.844 371.045 326.947 374.351C323.05 377.656 318.106 379.471 312.996 379.471C307.885 379.471 302.941 377.656 299.044 374.351C295.147 371.045 292.55 366.463 291.717 361.421H237.277V479.397H388.713V361.421H334.274Z" fill="#D6D6E3"></path><path d="M254.888 478.96H239.92V481.602H254.888V478.96Z" fill="#7F8993"></path><path d="M387.393 479.399H372.426V482.041H387.393V479.399Z" fill="#7F8993"></path><path d="M389.155 470.053H237.719V474.159H389.155V470.053Z" fill="#262A2E"></path><path d="M617.55 364.502H8.44235C6.20408 364.5 4.05821 363.609 2.47551 362.027C0.892816 360.444 0.00254094 358.298 0 356.06L0 8.44309C0.0023455 6.20469 0.892534 4.05863 2.47525 2.47577C4.05797 0.892918 6.20395 0.00254129 8.44235 0H617.55C619.789 0.00254094 621.935 0.892816 623.517 2.47551C625.1 4.05821 625.99 6.20408 625.993 8.44234V356.06C625.99 358.298 625.1 360.444 623.517 362.027C621.934 363.609 619.789 364.499 617.55 364.502Z" fill="#262A2E"></path><path d="M611.025 14.0869H14.9668V350.415H611.025V14.0869Z" fill="white"></path><path d="M313.554 181.554L249.644 133.685L186.608 180.9L185.164 178.975L249.644 130.678L313.25 178.32L376.456 109.151L376.71 109.048L440.469 83.3594L441.368 85.5911L377.864 111.177L313.554 181.554Z" fill="#D6D6E3"></path><path d="M505.634 270.16H121.238C120.919 270.16 120.613 270.033 120.388 269.808C120.162 269.582 120.035 269.276 120.035 268.957V84.7167C120.035 84.3976 120.162 84.0916 120.388 83.866C120.613 83.6404 120.919 83.5137 121.238 83.5137C121.557 83.5137 121.863 83.6404 122.089 83.866C122.314 84.0916 122.441 84.3976 122.441 84.7167V267.754H505.634C505.953 267.754 506.259 267.881 506.485 268.107C506.711 268.332 506.837 268.638 506.837 268.957C506.837 269.276 506.711 269.582 506.485 269.808C506.259 270.033 505.953 270.16 505.634 270.16Z" fill="#3A5EA3"></path><path d="M203.368 256.927H168.405C167.459 256.926 166.551 256.55 165.881 255.881C165.212 255.211 164.835 254.304 164.834 253.357V205.16C164.835 204.214 165.212 203.306 165.881 202.637C166.551 201.967 167.459 201.591 168.405 201.59H203.367C204.314 201.591 205.222 201.967 205.891 202.637C206.561 203.306 206.937 204.214 206.939 205.16V253.358C206.937 254.304 206.561 255.211 205.891 255.881C205.222 256.55 204.315 256.926 203.368 256.927Z" fill="#5A8DEE"></path><path d="M267.126 256.927H232.163C231.216 256.926 230.309 256.55 229.639 255.881C228.97 255.211 228.593 254.304 228.592 253.357V159.448C228.593 158.501 228.97 157.593 229.639 156.924C230.309 156.254 231.216 155.878 232.163 155.877H267.125C268.072 155.878 268.98 156.254 269.649 156.924C270.319 157.593 270.695 158.501 270.696 159.448V253.357C270.695 254.304 270.319 255.211 269.649 255.881C268.98 256.55 268.072 256.926 267.125 256.927H267.126Z" fill="#5A8DEE"></path><path d="M330.884 256.927H295.921C294.974 256.926 294.066 256.55 293.397 255.881C292.727 255.211 292.351 254.304 292.35 253.357V205.16C292.351 204.214 292.727 203.306 293.397 202.637C294.066 201.967 294.974 201.591 295.921 201.59H330.883C331.83 201.591 332.737 201.967 333.407 202.637C334.076 203.306 334.453 204.214 334.454 205.16V253.358C334.453 254.304 334.076 255.211 333.407 255.881C332.738 256.55 331.83 256.926 330.884 256.927Z" fill="#5A8DEE"></path><path d="M394.641 256.928H359.679C358.754 256.948 357.858 256.6 357.189 255.961C356.519 255.322 356.13 254.444 356.107 253.519V141.241C356.13 140.316 356.519 139.438 357.188 138.799C357.858 138.159 358.753 137.812 359.679 137.832H394.641C395.566 137.812 396.461 138.159 397.131 138.798C397.8 139.437 398.189 140.316 398.212 141.241V253.518C398.189 254.443 397.801 255.322 397.131 255.961C396.462 256.6 395.567 256.948 394.641 256.928Z" fill="#5A8DEE"></path><path d="M458.399 256.928H423.437C422.49 256.927 421.582 256.55 420.913 255.881C420.243 255.211 419.866 254.304 419.865 253.357V108.922C419.866 107.975 420.243 107.068 420.913 106.398C421.582 105.729 422.49 105.353 423.437 105.352H458.399C459.345 105.353 460.253 105.729 460.923 106.398C461.592 107.068 461.969 107.975 461.97 108.922V253.357C461.969 254.304 461.592 255.211 460.923 255.881C460.253 256.55 459.346 256.927 458.399 256.928Z" fill="#5A8DEE"></path><path d="M185.736 186.81C189.817 186.81 193.126 183.708 193.126 179.882C193.126 176.056 189.817 172.954 185.736 172.954C181.654 172.954 178.346 176.056 178.346 179.882C178.346 183.708 181.654 186.81 185.736 186.81Z" fill="#3A5EA3"></path><path d="M249.472 140.625C253.553 140.625 256.862 137.316 256.862 133.235C256.862 129.153 253.553 125.845 249.472 125.845C245.391 125.845 242.082 129.153 242.082 133.235C242.082 137.316 245.391 140.625 249.472 140.625Z" fill="#3A5EA3"></path><path d="M313.208 186.81C317.29 186.81 320.598 183.708 320.598 179.882C320.598 176.056 317.29 172.954 313.208 172.954C309.127 172.954 305.818 176.056 305.818 179.882C305.818 183.708 309.127 186.81 313.208 186.81Z" fill="#3A5EA3"></path><path d="M376.945 117.532C381.026 117.532 384.335 114.223 384.335 110.142C384.335 106.061 381.026 102.752 376.945 102.752C372.863 102.752 369.555 106.061 369.555 110.142C369.555 114.223 372.863 117.532 376.945 117.532Z" fill="#3A5EA3"></path><path d="M440.681 91.6707C444.762 91.6707 448.071 88.3614 448.071 84.2792C448.071 80.197 444.762 76.8877 440.681 76.8877C436.6 76.8877 433.291 80.197 433.291 84.2792C433.291 88.3614 436.6 91.6707 440.681 91.6707Z" fill="#3A5EA3"></path><path d="M505.551 212.554C505.551 212.554 494.605 210.667 478.375 195.946C465.533 184.303 448.212 186.593 441.533 188.061C441.306 188.11 441.098 188.227 440.939 188.398C440.78 188.568 440.677 188.783 440.644 189.014C440.611 189.244 440.65 189.48 440.754 189.688C440.859 189.896 441.025 190.067 441.23 190.178C443.929 191.655 448.114 193.813 450.075 194.059C450.075 194.059 446.03 198.244 450.329 200.484C450.844 200.737 451.419 200.841 451.99 200.786C452.561 200.731 453.105 200.519 453.562 200.172C455.63 198.663 461.374 202.092 469.702 203.873C469.702 203.873 502.162 237.465 509.711 231.77L505.551 212.554Z" fill="#E9C7C7"></path><path d="M561.438 166.884C561.438 166.884 564.457 179.717 561.438 188.776L575.026 190.662L587.104 184.623V176.698C587.104 176.698 581.442 164.62 582.952 150.654L561.438 166.884Z" fill="#E9C7C7"></path><path d="M599.912 445.041C599.912 445.041 609.758 464.291 608.216 477.124C606.673 489.957 621.048 478.633 619.539 471.085C619.219 480.223 623.764 439.084 625.89 429.451C626.12 428.41 625.956 427.321 625.428 426.394C624.901 425.468 624.048 424.771 623.035 424.438C618.497 422.944 610.899 421.114 607.084 423.912C601.447 428.056 599.912 445.041 599.912 445.041Z" fill="#262A2E"></path><path d="M562.571 466.178C562.571 466.178 549.737 482.785 546.341 483.163C542.945 483.541 540.679 488.825 546.341 489.957C557.645 491.925 569.272 490.791 579.983 486.675C581.055 486.257 581.955 485.491 582.54 484.5C583.125 483.51 583.36 482.351 583.208 481.211L581.042 465.046L562.571 466.178Z" fill="#262A2E"></path><path d="M541.433 289.921L529.125 291.56C530.814 305.936 530.765 320.463 528.977 334.827V386.52C528.977 386.52 528.739 391.075 538.192 397.696C548.104 404.587 557.657 411.982 566.812 419.85L601.06 449.522C601.06 449.522 614.649 432.914 612.761 423.101C612.761 423.101 590.115 415.93 587.095 404.229C585.364 397.533 576.584 391.922 569.397 388.393C564.878 386.199 561.246 382.525 559.104 377.981C556.962 373.437 556.439 368.297 557.621 363.415C558.041 361.718 558.69 360.087 559.55 358.565C565.589 347.997 574.27 324.218 574.27 324.218L557.663 292.562L541.433 289.921Z" fill="#262A2E"></path><path d="M559.551 467.334C559.551 467.334 581.82 471.109 582.575 473.374C583.33 475.638 582.575 470.354 582.575 470.354C582.575 470.354 595.411 431.479 592.421 397.139C589.431 362.8 596.196 340.145 596.196 340.145C596.196 340.145 604.122 314.479 599.593 299.759C595.063 285.039 547.506 291.455 547.506 291.455C547.506 291.455 564.114 330.332 563.736 348.827C563.736 348.827 565.623 404.688 569.02 411.105C568.987 411.072 563.703 465.801 559.551 467.334Z" fill="#262A2E"></path><path d="M562.168 176.697C562.168 176.697 564.432 190.646 587.079 184.623L572.014 299.357C572.014 299.357 528.231 300.867 528.608 295.583L537.634 226.142L562.168 176.697Z" fill="white"></path><path d="M562.759 176.319C559.386 178.958 555.352 180.618 551.099 181.119C547.341 181.407 543.688 182.493 540.383 184.303C536.502 186.477 532.178 189.636 530.865 193.485C528.222 201.033 511.615 213.489 504.066 210.847L506.709 233.493C506.709 233.493 528.223 232.361 531.997 224.057L525.589 304.867H531.25C531.25 304.867 534.27 282.976 536.534 278.446C538.798 273.917 543.328 249.006 543.705 242.967C544.083 236.927 549.745 202.202 554.651 196.197L562.766 178.646L562.759 176.319Z" fill="#D6D6E3"></path><path opacity="0.1" d="M582.008 161.788C581.515 158.211 582.501 155.979 582.952 151.786L561.438 168.016C561.438 168.016 561.954 170.207 562.348 173.415C563.433 173.59 564.531 173.678 565.63 173.678C573.098 173.678 578.471 167.844 582.008 161.788Z" fill="#262A2E"></path><path d="M565.589 172.554C576.846 172.554 585.971 163.429 585.971 152.172C585.971 140.915 576.846 131.79 565.589 131.79C554.332 131.79 545.207 140.915 545.207 152.172C545.207 163.429 554.332 172.554 565.589 172.554Z" fill="#E9C7C7"></path><path d="M545.105 134.816C544.985 131.644 545.5 128.481 546.62 125.511C546.309 125.978 546.177 126.542 546.25 127.099C546.322 127.655 546.593 128.167 547.013 128.539C547.62 125.301 549.282 122.356 551.74 120.163C550.399 120.384 549.71 122.041 550.041 123.359C550.494 124.646 551.299 125.78 552.366 126.631C552.252 124.637 553.57 122.776 555.236 121.683C556.972 120.686 558.869 119.999 560.841 119.653C560.164 119.893 559.587 120.35 559.198 120.953C558.809 121.556 558.63 122.27 558.689 122.985C558.695 123.228 558.796 123.459 558.969 123.629C559.159 123.751 559.381 123.809 559.606 123.796C561.568 123.872 563.533 123.829 565.49 123.668C567.896 123.397 570.316 123.268 572.738 123.281C580.311 123.6 587.922 128.772 589.619 136.156C589.97 137.948 590.155 139.768 590.172 141.594L590.541 150.916C590.757 153.636 590.645 156.372 590.208 159.065C589.683 161.551 588.616 163.891 587.084 165.917C585.551 167.944 583.589 169.607 581.339 170.788C578.607 166.828 578.363 161.738 577.417 157.02C577.267 155.932 576.862 154.894 576.235 153.992C575.911 153.546 575.457 153.212 574.934 153.035C574.412 152.859 573.848 152.849 573.32 153.008C572.297 153.417 571.858 154.976 572.706 155.674C571.948 156.567 570.533 155.901 569.678 155.106C567.288 152.839 565.643 149.899 564.96 146.677C564.619 145.056 564.278 143.058 562.688 142.503C562.141 142.353 561.569 142.314 561.007 142.39C557.69 142.617 552.502 143.988 549.291 142.935C546.345 141.966 545.105 137.611 545.105 134.816Z" fill="#262A2E"></path><path d="M503.912 210.855C503.912 210.855 500.892 224.805 506.554 233.502L509.762 233.239L508.014 211.084L503.912 210.855Z" fill="#D6D6E3"></path><path d="M585.784 172.767L610.129 193.714C610.129 193.714 624.471 208.435 618.432 232.215C618.432 232.215 615.79 266.94 612.77 268.449C612.77 268.449 602.202 289.586 601.447 309.59C601.447 309.59 586.538 279.583 580.113 296.946C573.689 314.308 559.543 318.278 559.543 318.278L567.846 215.622C567.846 215.622 588.803 179.15 585.784 172.767Z" fill="#D6D6E3"></path><path d="M596.917 261.244C596.917 261.244 602.956 257.092 612.769 268.416L588.613 312.199L580.498 299.948C580.498 299.948 597.675 266.151 596.917 261.244Z" fill="#E9C7C7"></path><path d="M591.066 262.943C591.066 262.943 604.425 277.942 609.635 275.538L614.459 264.305L596.35 256.526L591.066 262.943Z" fill="#D6D6E3"></path><path opacity="0.1" d="M592.954 216.895C592.954 216.895 593.709 244.071 590.689 254.262L592.954 216.895Z" fill="#262A2E"></path><path opacity="0.1" d="M531.809 222.178C531.809 222.178 536.338 220.669 536.338 216.895L531.809 222.178Z" fill="#262A2E"></path></g><defs><clipPath id="clip0_194_16207"><rect width="650" height="490.897" fill="white"></rect></clipPath></defs></svg>