<svg xmlns="http://www.w3.org/2000/svg" width="334" height="30" viewBox="0 0 334 30" fill="none"><path d="M43.5216 24.229C42.282 24.229 41.1911 23.9996 40.249 23.5409C39.307 23.0663 38.5797 22.4099 38.0674 21.5715C37.555 20.7331 37.2988 19.7603 37.2988 18.6531V12.7924C37.2988 11.6851 37.555 10.7123 38.0674 9.87396C38.5797 9.0356 39.307 8.38705 40.249 7.92833C41.1911 7.4696 42.282 7.24023 43.5216 7.24023C44.7446 7.24023 45.8272 7.46169 46.7693 7.9046C47.7114 8.34751 48.4386 8.97233 48.951 9.77905C49.4633 10.5858 49.7195 11.5191 49.7195 12.5789C49.7195 12.658 49.6864 12.7291 49.6203 12.7924C49.5707 12.8399 49.5046 12.8636 49.422 12.8636L47.1412 12.9822C46.9428 12.9822 46.8437 12.8952 46.8437 12.7212C46.8437 11.788 46.5379 11.0366 45.9264 10.4671C45.3314 9.89769 44.5298 9.61296 43.5216 9.61296C42.5134 9.61296 41.7035 9.89769 41.092 10.4671C40.4804 11.0366 40.1747 11.788 40.1747 12.7212V18.7717C40.1747 19.6891 40.4804 20.4326 41.092 21.0021C41.7035 21.5715 42.5134 21.8562 43.5216 21.8562C44.5298 21.8562 45.3314 21.5794 45.9264 21.0258C46.5379 20.4563 46.8437 19.705 46.8437 18.7717C46.8437 18.5977 46.9428 18.5107 47.1412 18.5107L49.422 18.6056C49.5046 18.6056 49.5707 18.6293 49.6203 18.6768C49.6864 18.7242 49.7195 18.7796 49.7195 18.8429C49.7195 19.9185 49.4633 20.8676 48.951 21.6901C48.4386 22.4969 47.7114 23.1217 46.7693 23.5646C45.8272 24.0075 44.7446 24.229 43.5216 24.229ZM63.2409 7.71478C63.2409 7.63569 63.2657 7.57242 63.3153 7.52496C63.3814 7.46169 63.4558 7.43005 63.5384 7.43005H65.8193C65.9019 7.43005 65.968 7.46169 66.0176 7.52496C66.0837 7.57242 66.1168 7.63569 66.1168 7.71478V23.7544C66.1168 23.8335 66.0837 23.9047 66.0176 23.968C65.968 24.0154 65.9019 24.0391 65.8193 24.0391H63.5384C63.4558 24.0391 63.3814 24.0154 63.3153 23.968C63.2657 23.9047 63.2409 23.8335 63.2409 23.7544V16.9684C63.2409 16.8893 63.1996 16.8498 63.117 16.8498H56.7951C56.7124 16.8498 56.6711 16.8893 56.6711 16.9684V23.7544C56.6711 23.8335 56.638 23.9047 56.5719 23.968C56.5224 24.0154 56.4562 24.0391 56.3736 24.0391H54.0928C54.0101 24.0391 53.9357 24.0154 53.8696 23.968C53.8201 23.9047 53.7953 23.8335 53.7953 23.7544V7.71478C53.7953 7.63569 53.8201 7.57242 53.8696 7.52496C53.9357 7.46169 54.0101 7.43005 54.0928 7.43005H56.3736C56.4562 7.43005 56.5224 7.46169 56.5719 7.52496C56.638 7.57242 56.6711 7.63569 56.6711 7.71478V14.3584C56.6711 14.4375 56.7124 14.4771 56.7951 14.4771H63.117C63.1996 14.4771 63.2409 14.4375 63.2409 14.3584V7.71478ZM81.4285 24.0391C81.2632 24.0391 81.1558 23.9601 81.1062 23.8019L80.2881 21.2631C80.255 21.1998 80.2137 21.1681 80.1641 21.1681H73.6191C73.5695 21.1681 73.5282 21.1998 73.4951 21.2631L72.677 23.8019C72.6274 23.9601 72.52 24.0391 72.3547 24.0391H69.8755C69.7764 24.0391 69.702 24.0154 69.6524 23.968C69.6028 23.9047 69.5946 23.8177 69.6276 23.707L75.0074 7.66733C75.057 7.50914 75.1644 7.43005 75.3297 7.43005H78.4287C78.594 7.43005 78.7014 7.50914 78.751 7.66733L84.1556 23.707C84.1721 23.7386 84.1804 23.7781 84.1804 23.8256C84.1804 23.968 84.0895 24.0391 83.9077 24.0391H81.4285ZM74.2637 18.8666C74.2471 18.9615 74.2802 19.009 74.3628 19.009H79.3956C79.4947 19.009 79.5278 18.9615 79.4947 18.8666L76.9412 10.918C76.9247 10.8547 76.8999 10.8231 76.8668 10.8231C76.8338 10.8231 76.809 10.8547 76.7924 10.918L74.2637 18.8666ZM97.4798 24.0391C97.3145 24.0391 97.1988 23.968 97.1327 23.8256L93.8602 16.9921C93.8271 16.9289 93.7775 16.8972 93.7114 16.8972H90.7364C90.6538 16.8972 90.6125 16.9368 90.6125 17.0159V23.7544C90.6125 23.8335 90.5794 23.9047 90.5133 23.968C90.4637 24.0154 90.3976 24.0391 90.315 24.0391H88.0341C87.9515 24.0391 87.8771 24.0154 87.811 23.968C87.7614 23.9047 87.7366 23.8335 87.7366 23.7544V7.71478C87.7366 7.63569 87.7614 7.57242 87.811 7.52496C87.8771 7.46169 87.9515 7.43005 88.0341 7.43005H94.8518C95.86 7.43005 96.7526 7.63569 97.5294 8.04696C98.3062 8.44242 98.9094 9.01187 99.3391 9.75533C99.7689 10.483 99.9837 11.3213 99.9837 12.2704C99.9837 13.3619 99.6862 14.2951 99.0912 15.0702C98.5128 15.8295 97.7029 16.3594 96.6616 16.66C96.6286 16.66 96.6038 16.6758 96.5873 16.7074C96.5707 16.7391 96.5707 16.7707 96.5873 16.8023L100.083 23.707C100.116 23.7702 100.132 23.8177 100.132 23.8493C100.132 23.9759 100.042 24.0391 99.8598 24.0391H97.4798ZM90.7364 9.80278C90.6538 9.80278 90.6125 9.84232 90.6125 9.92142V14.6431C90.6125 14.7222 90.6538 14.7618 90.7364 14.7618H94.4552C95.2485 14.7618 95.8848 14.5403 96.3641 14.0974C96.86 13.6387 97.1079 13.0376 97.1079 12.2941C97.1079 11.5507 96.86 10.9496 96.3641 10.4909C95.8848 10.0321 95.2485 9.80278 94.4552 9.80278H90.7364ZM104.23 24.0391C104.147 24.0391 104.073 24.0154 104.007 23.968C103.957 23.9047 103.933 23.8335 103.933 23.7544V7.71478C103.933 7.63569 103.957 7.57242 104.007 7.52496C104.073 7.46169 104.147 7.43005 104.23 7.43005H106.511C106.593 7.43005 106.66 7.46169 106.709 7.52496C106.775 7.57242 106.808 7.63569 106.808 7.71478V23.7544C106.808 23.8335 106.775 23.9047 106.709 23.968C106.66 24.0154 106.593 24.0391 106.511 24.0391H104.23ZM117.288 24.2764C116.049 24.2764 114.95 24.0391 113.991 23.5646C113.032 23.0742 112.289 22.3861 111.76 21.5003C111.247 20.6145 110.991 19.5942 110.991 18.4395V13.0297C110.991 11.8908 111.256 10.8863 111.785 10.0163C112.314 9.13051 113.049 8.45033 113.991 7.97578C114.95 7.48542 116.049 7.24023 117.288 7.24023C118.545 7.24023 119.644 7.48542 120.586 7.97578C121.544 8.45033 122.288 9.13051 122.817 10.0163C123.346 10.8863 123.61 11.8908 123.61 13.0297V18.4395C123.61 19.5942 123.346 20.6145 122.817 21.5003C122.288 22.3861 121.544 23.0742 120.586 23.5646C119.644 24.0391 118.545 24.2764 117.288 24.2764ZM117.288 21.9037C118.33 21.9037 119.164 21.5952 119.792 20.9783C120.42 20.3614 120.734 19.5468 120.734 18.5344V13.006C120.734 11.9778 120.42 11.1552 119.792 10.5383C119.164 9.92142 118.33 9.61296 117.288 9.61296C116.264 9.61296 115.437 9.92142 114.809 10.5383C114.181 11.1552 113.867 11.9778 113.867 13.006V18.5344C113.867 19.5468 114.181 20.3614 114.809 20.9783C115.437 21.5952 116.264 21.9037 117.288 21.9037ZM139.013 7.43005C139.095 7.43005 139.162 7.46169 139.211 7.52496C139.277 7.57242 139.31 7.63569 139.31 7.71478V9.54178C139.31 9.62087 139.277 9.69205 139.211 9.75533C139.162 9.80278 139.095 9.82651 139.013 9.82651H134.451C134.369 9.82651 134.327 9.86605 134.327 9.94514V23.7544C134.327 23.8335 134.294 23.9047 134.228 23.968C134.178 24.0154 134.112 24.0391 134.03 24.0391H131.749C131.666 24.0391 131.592 24.0154 131.526 23.968C131.476 23.9047 131.451 23.8335 131.451 23.7544V9.94514C131.451 9.86605 131.41 9.82651 131.327 9.82651H126.939C126.857 9.82651 126.782 9.80278 126.716 9.75533C126.667 9.69205 126.642 9.62087 126.642 9.54178V7.71478C126.642 7.63569 126.667 7.57242 126.716 7.52496C126.782 7.46169 126.857 7.43005 126.939 7.43005H139.013ZM148.439 24.229C147.15 24.229 146.026 24.0312 145.068 23.6358C144.109 23.2403 143.365 22.6867 142.836 21.9749C142.324 21.2631 142.068 20.4247 142.068 19.4598V18.8666C142.068 18.7875 142.093 18.7242 142.142 18.6768C142.208 18.6135 142.283 18.5819 142.365 18.5819H144.572C144.654 18.5819 144.72 18.6135 144.77 18.6768C144.836 18.7242 144.869 18.7875 144.869 18.8666V19.3174C144.869 20.0451 145.208 20.6541 145.886 21.1444C146.563 21.619 147.489 21.8562 148.662 21.8562C149.671 21.8562 150.431 21.6506 150.943 21.2393C151.456 20.8281 151.712 20.2981 151.712 19.6496C151.712 19.2067 151.571 18.835 151.29 18.5344C151.009 18.2181 150.604 17.9333 150.075 17.6802C149.563 17.4271 148.786 17.1108 147.745 16.7311C146.572 16.3199 145.621 15.9323 144.894 15.5685C144.167 15.2047 143.555 14.7143 143.059 14.0974C142.58 13.4647 142.34 12.6817 142.34 11.7484C142.34 10.3564 142.869 9.25705 143.927 8.45032C144.985 7.6436 146.398 7.24023 148.167 7.24023C149.406 7.24023 150.497 7.44587 151.439 7.85714C152.398 8.26842 153.141 8.84578 153.67 9.58923C154.199 10.3169 154.464 11.1631 154.464 12.1281V12.5314C154.464 12.6105 154.431 12.6817 154.364 12.745C154.315 12.7924 154.249 12.8161 154.166 12.8161H151.935C151.852 12.8161 151.778 12.7924 151.712 12.745C151.662 12.6817 151.637 12.6105 151.637 12.5314V12.2704C151.637 11.527 151.315 10.9021 150.67 10.396C150.042 9.87396 149.166 9.61296 148.043 9.61296C147.134 9.61296 146.423 9.79487 145.91 10.1587C145.415 10.5225 145.167 11.0366 145.167 11.701C145.167 12.1755 145.299 12.5631 145.563 12.8636C145.828 13.1641 146.224 13.441 146.753 13.6941C147.282 13.9313 148.1 14.2398 149.208 14.6194C150.381 15.0465 151.315 15.4341 152.009 15.7821C152.72 16.1301 153.323 16.6204 153.819 17.2531C154.331 17.8701 154.588 18.6451 154.588 19.5784C154.588 21.0021 154.034 22.1331 152.927 22.9714C151.836 23.8098 150.34 24.229 148.439 24.229ZM174.124 15.3787C174.025 15.4261 174.025 15.4736 174.124 15.5211C175.81 16.2803 176.653 17.5853 176.653 19.4361C176.653 20.9388 176.124 22.0856 175.066 22.8765C174.025 23.6516 172.661 24.0391 170.976 24.0391H164.728C164.645 24.0391 164.571 24.0154 164.505 23.968C164.455 23.9047 164.431 23.8335 164.431 23.7544V7.71478C164.431 7.63569 164.455 7.57242 164.505 7.52496C164.571 7.46169 164.645 7.43005 164.728 7.43005H170.777C172.579 7.43005 173.967 7.80178 174.942 8.54523C175.917 9.28869 176.405 10.4118 176.405 11.9145C176.405 13.5754 175.645 14.7301 174.124 15.3787ZM167.43 9.80278C167.348 9.80278 167.306 9.84232 167.306 9.92142V14.311C167.306 14.3901 167.348 14.4296 167.43 14.4296H170.777C171.653 14.4296 172.339 14.2319 172.835 13.8364C173.347 13.4251 173.604 12.8636 173.604 12.1518C173.604 11.4241 173.347 10.8547 172.835 10.4434C172.339 10.0163 171.653 9.80278 170.777 9.80278H167.43ZM170.976 21.6427C171.835 21.6427 172.513 21.4212 173.009 20.9783C173.521 20.5354 173.777 19.9343 173.777 19.1751C173.777 18.4 173.521 17.7989 173.009 17.3718C172.496 16.9289 171.802 16.7074 170.926 16.7074H167.43C167.348 16.7074 167.306 16.747 167.306 16.8261V21.524C167.306 21.6031 167.348 21.6427 167.43 21.6427H170.976ZM186.696 24.2764C185.456 24.2764 184.357 24.0391 183.398 23.5646C182.44 23.0742 181.696 22.3861 181.167 21.5003C180.655 20.6145 180.399 19.5942 180.399 18.4395V13.0297C180.399 11.8908 180.663 10.8863 181.192 10.0163C181.721 9.13051 182.456 8.45033 183.398 7.97578C184.357 7.48542 185.456 7.24023 186.696 7.24023C187.952 7.24023 189.051 7.48542 189.993 7.97578C190.952 8.45033 191.695 9.13051 192.224 10.0163C192.753 10.8863 193.018 11.8908 193.018 13.0297V18.4395C193.018 19.5942 192.753 20.6145 192.224 21.5003C191.695 22.3861 190.952 23.0742 189.993 23.5646C189.051 24.0391 187.952 24.2764 186.696 24.2764ZM186.696 21.9037C187.737 21.9037 188.572 21.5952 189.2 20.9783C189.828 20.3614 190.142 19.5468 190.142 18.5344V13.006C190.142 11.9778 189.828 11.1552 189.2 10.5383C188.572 9.92142 187.737 9.61296 186.696 9.61296C185.671 9.61296 184.845 9.92142 184.216 10.5383C183.588 11.1552 183.274 11.9778 183.274 13.006V18.5344C183.274 19.5468 183.588 20.3614 184.216 20.9783C184.845 21.5952 185.671 21.9037 186.696 21.9037ZM203.085 24.2764C201.845 24.2764 200.746 24.0391 199.788 23.5646C198.829 23.0742 198.085 22.3861 197.557 21.5003C197.044 20.6145 196.788 19.5942 196.788 18.4395V13.0297C196.788 11.8908 197.052 10.8863 197.581 10.0163C198.11 9.13051 198.846 8.45033 199.788 7.97578C200.746 7.48542 201.845 7.24023 203.085 7.24023C204.341 7.24023 205.44 7.48542 206.382 7.97578C207.341 8.45033 208.085 9.13051 208.614 10.0163C209.143 10.8863 209.407 11.8908 209.407 13.0297V18.4395C209.407 19.5942 209.143 20.6145 208.614 21.5003C208.085 22.3861 207.341 23.0742 206.382 23.5646C205.44 24.0391 204.341 24.2764 203.085 24.2764ZM203.085 21.9037C204.126 21.9037 204.961 21.5952 205.589 20.9783C206.217 20.3614 206.531 19.5468 206.531 18.5344V13.006C206.531 11.9778 206.217 11.1552 205.589 10.5383C204.961 9.92142 204.126 9.61296 203.085 9.61296C202.06 9.61296 201.234 9.92142 200.606 10.5383C199.978 11.1552 199.664 11.9778 199.664 13.006V18.5344C199.664 19.5468 199.978 20.3614 200.606 20.9783C201.234 21.5952 202.06 21.9037 203.085 21.9037ZM213.897 24.0391C213.814 24.0391 213.74 24.0154 213.674 23.968C213.624 23.9047 213.6 23.8335 213.6 23.7544V7.71478C213.6 7.63569 213.624 7.57242 213.674 7.52496C213.74 7.46169 213.814 7.43005 213.897 7.43005H216.178C216.261 7.43005 216.327 7.46169 216.376 7.52496C216.442 7.57242 216.475 7.63569 216.475 7.71478V14.8092C216.475 14.8567 216.492 14.8883 216.525 14.9041C216.558 14.92 216.591 14.9121 216.624 14.8804L223.07 7.59614C223.169 7.48542 223.293 7.43005 223.442 7.43005H226.02C226.185 7.43005 226.268 7.48542 226.268 7.59614C226.268 7.6436 226.243 7.70687 226.194 7.78596L220.516 14.4533C220.467 14.5166 220.459 14.572 220.492 14.6194L226.59 23.707C226.623 23.8019 226.64 23.8572 226.64 23.8731C226.64 23.9838 226.557 24.0391 226.392 24.0391H223.789C223.64 24.0391 223.524 23.9759 223.442 23.8493L218.533 16.5413C218.467 16.4464 218.409 16.4385 218.36 16.5176L216.525 18.5581C216.492 18.6214 216.475 18.6768 216.475 18.7242V23.7544C216.475 23.8335 216.442 23.9047 216.376 23.968C216.327 24.0154 216.261 24.0391 216.178 24.0391H213.897ZM230.262 24.0391C230.18 24.0391 230.105 24.0154 230.039 23.968C229.99 23.9047 229.965 23.8335 229.965 23.7544V7.71478C229.965 7.63569 229.99 7.57242 230.039 7.52496C230.105 7.46169 230.18 7.43005 230.262 7.43005H232.543C232.626 7.43005 232.692 7.46169 232.742 7.52496C232.808 7.57242 232.841 7.63569 232.841 7.71478V14.8092C232.841 14.8567 232.857 14.8883 232.89 14.9041C232.923 14.92 232.956 14.9121 232.989 14.8804L239.435 7.59614C239.534 7.48542 239.658 7.43005 239.807 7.43005H242.386C242.551 7.43005 242.633 7.48542 242.633 7.59614C242.633 7.6436 242.609 7.70687 242.559 7.78596L236.882 14.4533C236.832 14.5166 236.824 14.572 236.857 14.6194L242.956 23.707C242.989 23.8019 243.005 23.8572 243.005 23.8731C243.005 23.9838 242.923 24.0391 242.757 24.0391H240.154C240.006 24.0391 239.89 23.9759 239.807 23.8493L234.898 16.5413C234.832 16.4464 234.774 16.4385 234.725 16.5176L232.89 18.5581C232.857 18.6214 232.841 18.6768 232.841 18.7242V23.7544C232.841 23.8335 232.808 23.9047 232.742 23.968C232.692 24.0154 232.626 24.0391 232.543 24.0391H230.262ZM258.081 9.51805C258.081 9.59714 258.048 9.66832 257.982 9.7316C257.933 9.77905 257.867 9.80278 257.784 9.80278H249.33C249.247 9.80278 249.206 9.84232 249.206 9.92142V14.3584C249.206 14.4375 249.247 14.4771 249.33 14.4771H255.007C255.09 14.4771 255.156 14.5087 255.206 14.572C255.272 14.6194 255.305 14.6827 255.305 14.7618V16.5651C255.305 16.6441 255.272 16.7153 255.206 16.7786C255.156 16.8261 255.09 16.8498 255.007 16.8498H249.33C249.247 16.8498 249.206 16.8893 249.206 16.9684V21.5478C249.206 21.6269 249.247 21.6664 249.33 21.6664H257.784C257.867 21.6664 257.933 21.6981 257.982 21.7613C258.048 21.8088 258.081 21.8721 258.081 21.9511V23.7544C258.081 23.8335 258.048 23.9047 257.982 23.968C257.933 24.0154 257.867 24.0391 257.784 24.0391H246.628C246.545 24.0391 246.471 24.0154 246.405 23.968C246.355 23.9047 246.33 23.8335 246.33 23.7544V7.71478C246.33 7.63569 246.355 7.57242 246.405 7.52496C246.471 7.46169 246.545 7.43005 246.628 7.43005H257.784C257.867 7.43005 257.933 7.46169 257.982 7.52496C258.048 7.57242 258.081 7.63569 258.081 7.71478V9.51805ZM273.745 9.51805C273.745 9.59714 273.712 9.66832 273.646 9.7316C273.596 9.77905 273.53 9.80278 273.448 9.80278H264.994C264.911 9.80278 264.87 9.84232 264.87 9.92142V14.3584C264.87 14.4375 264.911 14.4771 264.994 14.4771H270.671C270.753 14.4771 270.82 14.5087 270.869 14.572C270.935 14.6194 270.968 14.6827 270.968 14.7618V16.5651C270.968 16.6441 270.935 16.7153 270.869 16.7786C270.82 16.8261 270.753 16.8498 270.671 16.8498H264.994C264.911 16.8498 264.87 16.8893 264.87 16.9684V21.5478C264.87 21.6269 264.911 21.6664 264.994 21.6664H273.448C273.53 21.6664 273.596 21.6981 273.646 21.7613C273.712 21.8088 273.745 21.8721 273.745 21.9511V23.7544C273.745 23.8335 273.712 23.9047 273.646 23.968C273.596 24.0154 273.53 24.0391 273.448 24.0391H262.291C262.209 24.0391 262.134 24.0154 262.068 23.968C262.019 23.9047 261.994 23.8335 261.994 23.7544V7.71478C261.994 7.63569 262.019 7.57242 262.068 7.52496C262.134 7.46169 262.209 7.43005 262.291 7.43005H273.448C273.53 7.43005 273.596 7.46169 273.646 7.52496C273.712 7.57242 273.745 7.63569 273.745 7.71478V9.51805ZM284.624 7.40633C285.665 7.40633 286.582 7.61196 287.376 8.02323C288.169 8.43451 288.781 9.01978 289.21 9.77905C289.656 10.5225 289.88 11.3846 289.88 12.3653C289.88 13.3302 289.656 14.1844 289.21 14.9279C288.764 15.6713 288.128 16.2487 287.301 16.66C286.491 17.0554 285.549 17.2531 284.475 17.2531H280.508C280.426 17.2531 280.384 17.2927 280.384 17.3718V23.7544C280.384 23.8335 280.351 23.9047 280.285 23.968C280.236 24.0154 280.17 24.0391 280.087 24.0391H277.806C277.723 24.0391 277.649 24.0154 277.583 23.968C277.533 23.9047 277.509 23.8335 277.509 23.7544V7.69105C277.509 7.61196 277.533 7.54869 277.583 7.50123C277.649 7.43796 277.723 7.40633 277.806 7.40633H284.624ZM284.202 15.0228C285.045 15.0228 285.723 14.7855 286.235 14.311C286.748 13.8364 287.004 13.2116 287.004 12.4365C287.004 11.6456 286.748 11.005 286.235 10.5146C285.723 10.0242 285.045 9.77905 284.202 9.77905H280.508C280.426 9.77905 280.384 9.8186 280.384 9.89769V14.9041C280.384 14.9832 280.426 15.0228 280.508 15.0228H284.202ZM293.691 24.0391C293.608 24.0391 293.534 24.0154 293.468 23.968C293.418 23.9047 293.393 23.8335 293.393 23.7544V7.71478C293.393 7.63569 293.418 7.57242 293.468 7.52496C293.534 7.46169 293.608 7.43005 293.691 7.43005H295.971C296.054 7.43005 296.12 7.46169 296.17 7.52496C296.236 7.57242 296.269 7.63569 296.269 7.71478V23.7544C296.269 23.8335 296.236 23.9047 296.17 23.968C296.12 24.0154 296.054 24.0391 295.971 24.0391H293.691ZM310.964 7.71478C310.964 7.63569 310.988 7.57242 311.038 7.52496C311.104 7.46169 311.178 7.43005 311.261 7.43005H313.542C313.625 7.43005 313.691 7.46169 313.74 7.52496C313.806 7.57242 313.839 7.63569 313.839 7.71478V23.7544C313.839 23.8335 313.806 23.9047 313.74 23.968C313.691 24.0154 313.625 24.0391 313.542 24.0391H311.336C311.17 24.0391 311.055 23.9759 310.988 23.8493L303.848 12.6501C303.815 12.6026 303.782 12.5868 303.749 12.6026C303.716 12.6026 303.7 12.6342 303.7 12.6975L303.749 23.7544C303.749 23.8335 303.716 23.9047 303.65 23.968C303.6 24.0154 303.534 24.0391 303.452 24.0391H301.171C301.088 24.0391 301.014 24.0154 300.948 23.968C300.898 23.9047 300.873 23.8335 300.873 23.7544V7.71478C300.873 7.63569 300.898 7.57242 300.948 7.52496C301.014 7.46169 301.088 7.43005 301.171 7.43005H303.377C303.543 7.43005 303.658 7.49333 303.724 7.61987L310.84 18.8191C310.873 18.8666 310.906 18.8903 310.939 18.8903C310.972 18.8745 310.988 18.835 310.988 18.7717L310.964 7.71478ZM324.251 24.229C323.011 24.229 321.92 23.9996 320.978 23.5409C320.036 23.0663 319.309 22.402 318.796 21.5478C318.284 20.6936 318.028 19.7129 318.028 18.6056V12.8636C318.028 11.7405 318.284 10.7598 318.796 9.92142C319.309 9.06723 320.036 8.41078 320.978 7.95205C321.92 7.47751 323.011 7.24023 324.251 7.24023C325.474 7.24023 326.548 7.4696 327.474 7.92833C328.416 8.38705 329.143 9.01187 329.655 9.80278C330.168 10.5937 330.424 11.4874 330.424 12.484V12.6738C330.424 12.7529 330.391 12.8241 330.325 12.8873C330.275 12.9348 330.209 12.9585 330.126 12.9585H327.87C327.788 12.9585 327.713 12.9348 327.647 12.8873C327.598 12.8241 327.573 12.7529 327.573 12.6738V12.5551C327.573 11.701 327.267 10.9971 326.655 10.4434C326.06 9.88978 325.259 9.61296 324.251 9.61296C323.242 9.61296 322.433 9.9056 321.821 10.4909C321.21 11.0603 320.904 11.8196 320.904 12.7687V18.7005C320.904 19.6496 321.226 20.4168 321.871 21.0021C322.515 21.5715 323.35 21.8562 324.375 21.8562C325.366 21.8562 326.143 21.6111 326.705 21.1207C327.283 20.6145 327.573 19.9264 327.573 19.0564V17.5853C327.573 17.5062 327.531 17.4667 327.449 17.4667H324.399C324.317 17.4667 324.242 17.443 324.176 17.3955C324.127 17.3322 324.102 17.2611 324.102 17.182V15.4261C324.102 15.3471 324.127 15.2838 324.176 15.2363C324.242 15.1731 324.317 15.1414 324.399 15.1414H330.126C330.209 15.1414 330.275 15.1731 330.325 15.2363C330.391 15.2838 330.424 15.3471 330.424 15.4261V18.4632C330.424 20.2823 329.862 21.6981 328.738 22.7104C327.631 23.7228 326.135 24.229 324.251 24.229Z" fill="white"></path><mask id="mask0_223_1920" style="mask-type:alpha" maskUnits="userSpaceOnUse" x="0" y="2" width="28" height="26"><path d="M-0.000720978 2.28906H27.6035V27.7016H-0.000720978V2.28906Z" fill="#D9D9D9"></path></mask><g mask="url(#mask0_223_1920)"><path d="M-0.0800781 11.2104V25.4844L5.51285 27.2687L11.7404 16.7566C12.2251 15.9359 13.7298 16.4221 13.5806 17.3856L11.1058 34.4058L27.5142 27.7016L27.6049 12.8876C26.5941 6.69222 21.2476 2.28906 14.8344 2.28906H-0.0800781L2.86554 6.51776C1.11308 7.42773 -0.0800781 9.1763 -0.0800781 11.2104Z" fill="white"></path></g></svg>