<svg xmlns="http://www.w3.org/2000/svg" width="663" height="648" viewBox="0 0 663 648" fill="none"><g clip-path="url(#clip0_194_16487)"><path d="M204.737 475.474H121.688C119.594 475.474 117.891 473.772 117.891 471.679C117.891 469.587 119.594 467.885 121.688 467.885H204.737C206.83 467.885 208.533 469.587 208.533 471.679C208.533 473.772 206.83 475.474 204.737 475.474Z" fill="#5A8DEE"></path><path d="M56.416 495.788C56.416 496.469 56.9638 497.017 57.6459 497.017H268.779C269.461 497.017 270.008 496.469 270.008 495.788C270.008 495.106 269.461 494.559 268.779 494.559H57.6459C56.9638 494.559 56.416 495.106 56.416 495.788Z" fill="#262A2E"></path><path d="M501.872 248.131C538.973 248.131 569.05 218.072 569.05 180.992C569.05 143.912 538.973 113.854 501.872 113.854C464.772 113.854 434.695 143.912 434.695 180.992C434.695 218.072 464.772 248.131 501.872 248.131Z" fill="#7F95C1"></path><path d="M0 580.628C0 581.309 0.547783 581.857 1.22992 581.857H541.014C541.696 581.857 542.244 581.309 542.244 580.628C542.244 579.946 541.696 579.398 541.014 579.398H1.22992C0.547783 579.398 0 579.946 0 580.628Z" fill="#262A2E"></path><path d="M7.80874 497.622L6.08203 495.732L174.608 342.04L235.324 369.242L300.889 256.869L354.757 230.919L404.667 314.054C431.613 244.335 499.19 171.392 580.166 97.3867L582.157 98.9986C506.211 171.668 441.232 244.667 404.355 318.511L358.19 241.387C356.009 237.744 351.426 236.337 347.574 238.128C318.129 251.821 293.569 274.171 277.178 302.191L236.107 372.399L226.732 368.198C195.378 354.151 158.672 360.039 133.291 383.186L7.80874 497.622Z" fill="#262A2E"></path><path d="M583.965 111.379L581.407 111.556L577.278 102.614L568.035 100.737L567.676 98.1992L582.913 96.0352L583.965 111.379Z" fill="#262A2E"></path><path d="M321.09 166.094L330.149 131.288L365.44 129.592L375.998 177.571L321.09 166.094Z" fill="#E9C7C7"></path><path opacity="0.1" d="M321.09 166.094L330.149 131.288L365.44 129.592L375.998 177.571L321.09 166.094Z" fill="#262A2E"></path><path d="M344.314 150.768C367.839 150.768 386.91 131.707 386.91 108.195C386.91 84.6833 367.839 65.623 344.314 65.623C320.788 65.623 301.717 84.6833 301.717 108.195C301.717 131.707 320.788 150.768 344.314 150.768Z" fill="#E9C7C7"></path><path d="M367.815 117.206C367.815 117.206 351.633 85.1632 332.673 87.0132C313.713 88.8632 303.725 91.1131 303.725 91.1131C303.725 91.1131 298.097 66.1564 324.594 56.5568C324.594 56.5568 290.904 23.3657 331.015 7.08401C371.126 -9.1977 393.571 11.5676 393.571 11.5676C393.571 11.5676 423.261 41.1905 385.867 63.331C385.867 63.331 413.634 100.659 380.015 131.425C380.015 131.425 387.535 106.528 379.689 111.12C371.843 115.711 367.815 117.206 367.815 117.206Z" fill="#262A2E"></path><path d="M297.315 342.133L291.649 347.56L250.715 435.279L246.234 580.373H315.009L347.271 508.521L369.008 579.679H430.846L445.181 450.505L406.646 359.15L297.315 342.133Z" fill="#262A2E"></path><path d="M368.558 162.559H322.629L272.67 189.428L284.32 241.375C284.32 241.375 281.631 272.722 287.905 296.009C294.178 319.295 291.489 349.747 291.489 349.747L406.645 359.151L410.23 253.466L408.437 182.71L368.558 162.559Z" fill="white"></path><path d="M280.288 189.875C280.288 189.875 252.507 190.771 248.026 208.683C243.546 226.596 239.961 318.847 239.961 318.847C239.961 318.847 242.649 373.587 272.671 347.56C302.692 321.534 300.003 242.718 300.003 242.718L280.288 189.875Z" fill="white"></path><path d="M549.745 646.819H386.03C380.486 646.819 375.975 642.311 375.975 636.77V467.624C375.975 462.082 380.486 457.574 386.03 457.574H549.745C555.29 457.574 559.8 462.082 559.8 467.624V636.77C559.8 642.311 555.29 646.819 549.745 646.819Z" fill="white"></path><path d="M549.743 647.852H386.028C379.914 647.852 374.939 642.881 374.939 636.769V467.624C374.939 461.513 379.914 456.541 386.028 456.541H549.743C555.858 456.541 560.832 461.513 560.832 467.624V636.769C560.832 642.881 555.858 647.852 549.743 647.852ZM386.028 458.607C381.054 458.607 377.006 462.652 377.006 467.623V636.769C377.006 641.741 381.054 645.786 386.028 645.786H549.743C554.718 645.786 558.765 641.741 558.765 636.769V467.623C558.765 462.652 554.718 458.607 549.743 458.607H386.028Z" fill="#262A2E"></path><path d="M474.348 602.382H460.854C459.211 602.382 457.875 601.351 457.875 600.084V542.023C457.875 540.756 459.211 539.725 460.854 539.725H474.348C475.991 539.725 477.327 540.756 477.327 542.023V600.084C477.327 601.351 475.991 602.382 474.348 602.382Z" fill="#5A8DEE"></path><path d="M429.737 568.168C428.41 568.168 427.33 569.001 427.33 570.025V600.02C427.33 601.044 428.41 601.878 429.737 601.878H443.231C444.558 601.878 445.638 601.044 445.638 600.02V570.025C445.638 569.001 444.558 568.168 443.231 568.168H429.737Z" fill="#5A8DEE"></path><path d="M505.465 602.383H491.971C490.329 602.383 488.992 601.352 488.992 600.084V504.933C488.992 503.666 490.329 502.635 491.971 502.635H505.465C507.108 502.635 508.444 503.666 508.444 504.933V600.084C508.444 601.352 507.108 602.383 505.465 602.383Z" fill="#5A8DEE"></path><path d="M215.096 185.298H199.683C197.806 185.298 196.279 184.12 196.279 182.672V116.35C196.279 114.902 197.806 113.725 199.683 113.725H215.096C216.973 113.725 218.499 114.902 218.499 116.35V182.672C218.499 184.12 216.973 185.298 215.096 185.298Z" fill="#5A8DEE"></path><path d="M164.138 146.215C162.622 146.215 161.389 147.167 161.389 148.336V182.6C161.389 183.769 162.622 184.721 164.138 184.721H179.552C181.068 184.721 182.302 183.769 182.302 182.6V148.336C182.302 147.167 181.068 146.215 179.552 146.215H164.138Z" fill="#5A8DEE"></path><path d="M250.641 185.298H235.227C233.351 185.298 231.824 184.121 231.824 182.673V73.9829C231.824 72.5351 233.351 71.3574 235.227 71.3574H250.641C252.518 71.3574 254.044 72.5351 254.044 73.9829V182.673C254.044 184.121 252.518 185.298 250.641 185.298Z" fill="#5A8DEE"></path><path d="M442.789 482.184C450.772 481.421 456.27 470.639 455.068 458.097C454.657 453.081 453.05 448.236 450.381 443.967L448.843 429.773L449.078 429.702L452.946 362.401C453.845 346.752 447.647 331.375 435.706 321.214C428.603 315.169 421.025 312.109 416.152 319.746C408.066 332.419 418.539 384.661 425.417 414.362L428.084 446.1C426.272 450.799 425.613 455.862 426.162 460.867C427.361 473.404 434.805 482.948 442.789 482.184Z" fill="#E9C7C7"></path><path d="M398.58 184.501C398.58 184.501 421.88 175.545 432.634 202.414C443.388 229.283 455.038 361.838 455.038 361.838L400.372 351.986L398.58 184.501Z" fill="white"></path><path d="M78.64 171.359H47.2661C45.1724 171.359 43.4688 169.656 43.4688 167.564C43.4688 165.471 45.1724 163.77 47.2661 163.77H78.64C80.7337 163.77 82.4365 165.471 82.4365 167.564C82.4365 169.656 80.7337 171.359 78.64 171.359Z" fill="#7F95C1"></path><path d="M78.64 117.566H47.2661C45.1724 117.566 43.4688 115.863 43.4688 113.771C43.4688 111.678 45.1724 109.977 47.2661 109.977H78.64C80.7337 109.977 82.4365 111.678 82.4365 113.771C82.4365 115.863 80.7337 117.566 78.64 117.566Z" fill="#7F95C1"></path><path d="M78.64 78.7731H47.2661C45.1724 78.7731 43.4688 77.0705 43.4688 74.978C43.4688 72.8855 45.1724 71.1836 47.2661 71.1836H78.64C80.7337 71.1836 82.4365 72.8854 82.4365 74.978C82.4365 77.0705 80.7337 78.7731 78.64 78.7731Z" fill="#7F95C1"></path><path d="M42.2109 185.485C42.2109 186.167 42.7587 186.714 43.4409 186.714H254.573C255.256 186.714 255.803 186.167 255.803 185.485C255.803 184.803 255.256 184.256 254.573 184.256H43.4409C42.7587 184.256 42.2109 184.803 42.2109 185.485Z" fill="#262A2E"></path><path d="M449.408 503.62C449.408 504.302 449.956 504.849 450.638 504.849H661.771C662.453 504.849 663.001 504.302 663.001 503.62C663.001 502.938 662.453 502.391 661.771 502.391H450.638C449.956 502.391 449.408 502.938 449.408 503.62Z" fill="#262A2E"></path><path d="M387.398 603.811C387.398 604.493 387.946 605.04 388.628 605.04H599.761C600.443 605.04 600.991 604.493 600.991 603.811C600.991 603.13 600.443 602.582 599.761 602.582H388.628C387.946 602.582 387.398 603.13 387.398 603.811Z" fill="#262A2E"></path><path d="M245.421 179.271C237.438 180.035 231.94 190.817 233.141 203.359C233.552 208.375 235.159 213.22 237.828 217.489L239.367 231.683L239.131 231.754L235.264 299.055C234.364 314.704 240.562 330.08 252.504 340.242C259.607 346.287 267.185 349.347 272.058 341.71C280.144 329.036 269.67 276.795 262.793 247.094L260.126 215.355C261.937 210.657 262.596 205.594 262.048 200.589C260.849 188.052 253.404 178.508 245.421 179.271Z" fill="#E9C7C7"></path></g><defs><clipPath id="clip0_194_16487"><rect width="663" height="647" fill="white" transform="translate(0 0.851562)"></rect></clipPath></defs></svg>