<svg xmlns="http://www.w3.org/2000/svg" width="420" height="360" viewBox="0 0 420 360" fill="none"><g clip-path="url(#clip0_194_18037)"><path d="M0 357.856C0 358.383 0.423779 358.807 0.951492 358.807H418.54C419.068 358.807 419.492 358.383 419.492 357.856C419.492 357.328 419.068 356.904 418.54 356.904H0.951492C0.423773 356.904 0 357.328 0 357.856Z" fill="#262A2E"></path><path d="M136.246 38.4199L140.787 59.142L131.128 87.9852L115.566 56.9956L117.726 39.0171L136.246 38.4199Z" fill="#E9C7C7"></path><path d="M141.631 58.0684H114.762V90.5337H141.631V58.0684Z" fill="#5A8DEE"></path><path d="M130.582 48.8583C140.717 48.8583 148.933 40.6427 148.933 30.5083C148.933 20.3738 140.717 12.1582 130.582 12.1582C120.448 12.1582 112.232 20.3738 112.232 30.5083C112.232 40.6427 120.448 48.8583 130.582 48.8583Z" fill="#E9C7C7"></path><path d="M114.61 44.1533C114.61 44.1533 100.932 18.892 113.264 6.7356C125.597 -5.42079 135.496 2.58951 135.496 2.58951L141.15 2.36104C141.15 2.36104 142.329 6.81003 144.23 4.4016C146.131 1.99317 149.567 10.7644 149.567 10.7644C155.943 22.2479 133.838 24.8205 133.838 24.8205C133.838 24.8205 135.435 29.905 133.812 30.9698C132.19 32.0347 127.855 36.0403 127.855 36.0403L123.975 38.9707L121.669 35.4576C121.669 35.4576 119.261 33.5564 118.044 34.355C116.827 35.1537 118.501 45.6615 118.501 45.6615L114.61 44.1533Z" fill="#262A2E"></path><path d="M92.5958 229.996L85.5801 334.647L102.827 335.232L125.628 230.873L92.5958 229.996Z" fill="#262A2E"></path><path d="M134.397 229.412L127.381 334.063L144.628 334.648L167.429 230.289L134.397 229.412Z" fill="#262A2E"></path><path d="M88.3713 253.907L97.5527 139.927L83.4726 80.5757C82.2587 71.753 87.8177 63.4049 96.3973 61.1286L110.175 57.4733L116.273 51.375L130.143 82.0054L138.806 51.3984L145.562 56.3118L165.599 65.1519L165.59 65.3589L162.376 137.056L169.551 252.892L169.232 252.896L88.3713 253.907Z" fill="#E9ECEF"></path><path d="M143.522 333.459L148.515 348.367C148.515 348.367 168.053 351.024 168.357 357.072C168.661 363.12 141.805 359.619 126.079 360.41C110.353 361.2 123.443 344.17 123.443 344.17L125.119 334.384L143.522 333.459Z" fill="#262A2E"></path><path d="M102.738 332.385L107.732 347.293C107.732 347.293 127.27 349.949 127.574 355.998C127.878 362.046 101.021 358.545 85.2954 359.335C69.5695 360.126 82.6601 343.096 82.6601 343.096L84.3359 333.31L102.738 332.385Z" fill="#262A2E"></path><path d="M78.3741 193.374C78.1623 190.434 78.6578 187.487 79.8189 184.778L76.0918 154.203L90.6919 152.855L92.9003 184.015C94.3675 186.57 95.2016 189.439 95.3328 192.382C95.7622 199.744 92.3139 205.931 87.6303 206.204C82.9468 206.478 78.8024 200.733 78.3741 193.374Z" fill="#E9C7C7"></path><path d="M170.847 197.862C170.668 194.92 171.195 191.978 172.386 189.283L168.992 158.669L183.606 157.48L185.475 188.662C186.914 191.233 187.717 194.111 187.816 197.055C188.165 204.421 184.649 210.57 179.963 210.793C175.277 211.015 171.195 205.226 170.847 197.862Z" fill="#E9C7C7"></path><path d="M76.0315 181.111L75.9822 180.848L68.373 140.021L77.364 73.5391C78.1662 67.6037 83.4662 63.3281 89.4427 63.806C92.5639 64.0558 95.3642 65.5361 97.3286 67.9748C99.2927 70.4135 100.143 73.4652 99.7214 76.568L92.9545 126.429L97.215 179.759L76.0315 181.111Z" fill="#E9ECEF"></path><path d="M166.337 180.154L151.039 78.0356C150.244 75.0412 150.709 71.9076 152.356 69.2448C154.003 66.582 156.599 64.7663 159.665 64.1321C165.532 62.9188 171.325 66.5048 172.856 72.2947L187.553 178.871L166.337 180.154Z" fill="#E9ECEF"></path><path d="M130.591 91.3403C131.628 91.3403 132.469 90.4994 132.469 89.4621C132.469 88.4249 131.628 87.584 130.591 87.584C129.554 87.584 128.713 88.4249 128.713 89.4621C128.713 90.4994 129.554 91.3403 130.591 91.3403Z" fill="#D6DBE4"></path><path d="M130.591 105.559C131.628 105.559 132.469 104.718 132.469 103.681C132.469 102.644 131.628 101.803 130.591 101.803C129.554 101.803 128.713 102.644 128.713 103.681C128.713 104.718 129.554 105.559 130.591 105.559Z" fill="#D6DBE4"></path><path d="M130.591 119.78C131.628 119.78 132.469 118.939 132.469 117.902C132.469 116.864 131.628 116.023 130.591 116.023C129.554 116.023 128.713 116.864 128.713 117.902C128.713 118.939 129.554 119.78 130.591 119.78Z" fill="#D6DBE4"></path><path d="M130.591 134C131.628 134 132.469 133.16 132.469 132.122C132.469 131.085 131.628 130.244 130.591 130.244C129.554 130.244 128.713 131.085 128.713 132.122C128.713 133.16 129.554 134 130.591 134Z" fill="#D6DBE4"></path><path d="M130.591 148.221C131.628 148.221 132.469 147.38 132.469 146.343C132.469 145.306 131.628 144.465 130.591 144.465C129.554 144.465 128.713 145.306 128.713 146.343C128.713 147.38 129.554 148.221 130.591 148.221Z" fill="#D6DBE4"></path><path d="M130.591 162.442C131.628 162.442 132.469 161.601 132.469 160.564C132.469 159.526 131.628 158.686 130.591 158.686C129.554 158.686 128.713 159.526 128.713 160.564C128.713 161.601 129.554 162.442 130.591 162.442Z" fill="#D6DBE4"></path><path d="M130.591 176.661C131.628 176.661 132.469 175.82 132.469 174.782C132.469 173.745 131.628 172.904 130.591 172.904C129.554 172.904 128.713 173.745 128.713 174.782C128.713 175.82 129.554 176.661 130.591 176.661Z" fill="#D6DBE4"></path><path d="M130.591 190.881C131.628 190.881 132.469 190.04 132.469 189.003C132.469 187.966 131.628 187.125 130.591 187.125C129.554 187.125 128.713 187.966 128.713 189.003C128.713 190.04 129.554 190.881 130.591 190.881Z" fill="#D6DBE4"></path><path d="M130.594 201.883L95.0571 197.147L94.3728 197.057L76.2107 155.179L65.3945 130.246H93.5673L130.594 201.883Z" fill="#5A8DEE"></path><path d="M273.079 42.9769L295.673 30.5996V65.9634H269.543L273.079 42.9769Z" fill="#262A2E"></path><path d="M300.517 50.8619L302.602 68.2234L287.574 98.1497L278.246 70.2962L282.631 50.2852L300.517 50.8619Z" fill="#E9C7C7"></path><path d="M303.379 69.2598H277.432V100.611H303.379V69.2598Z" fill="#5A8DEE"></path><path d="M324.784 235.287L331.559 336.347L314.903 336.912L292.885 236.134L324.784 235.287Z" fill="#262A2E"></path><path d="M284.416 234.723L291.191 335.783L274.536 336.347L252.518 235.57L284.416 234.723Z" fill="#262A2E"></path><path d="M342.381 256.72L341.984 256.719L235.883 256.373L235.978 255.997L263.256 147.92L256.423 93.3771C255.129 83.0419 260.661 73.273 270.191 69.0689L273.631 67.5513L280.167 62.7985L288.527 92.3422L301.916 62.7754L307.815 68.6727L321.116 72.2019C329.407 74.4014 334.778 82.4679 333.61 90.9653L333.596 91.0245L313.283 148.987L342.381 256.72Z" fill="#E9ECEF"></path><path d="M275.607 335.199L293.378 336.092L294.996 345.543C294.996 345.543 307.637 361.988 292.451 361.225C277.265 360.462 251.33 363.843 251.624 358.002C251.917 352.161 270.784 349.596 270.784 349.596L275.607 335.199Z" fill="#262A2E"></path><path d="M314.989 334.162L332.76 335.055L334.379 344.506C334.379 344.506 347.02 360.951 331.834 360.188C316.648 359.425 290.713 362.806 291.006 356.965C291.3 351.124 310.167 348.559 310.167 348.559L314.989 334.162Z" fill="#262A2E"></path><path d="M331.263 198.884C330.85 205.991 326.848 211.538 322.325 211.274C317.802 211.01 314.472 205.035 314.886 197.926C315.013 195.084 315.819 192.313 317.236 189.846L319.368 159.756L333.467 161.058L329.868 190.583C330.989 193.199 331.468 196.045 331.263 198.884Z" fill="#E9C7C7"></path><path d="M258.81 196.181C258.245 203.277 254.126 208.738 249.61 208.378C245.094 208.018 241.891 201.974 242.457 194.875C242.645 192.036 243.509 189.283 244.978 186.847L247.751 156.809L261.819 158.41L257.592 187.852C258.657 190.491 259.075 193.347 258.81 196.181Z" fill="#E9C7C7"></path><path d="M333.534 187.055L313.058 185.748L313.083 185.441L317.173 134.237L310.639 86.089C310.232 83.09 311.053 80.14 312.952 77.783C314.85 75.4256 317.557 73.9947 320.574 73.7531C326.351 73.2977 331.473 77.4243 332.249 83.1613L340.932 147.363L340.923 147.411L333.534 187.055Z" fill="#E9ECEF"></path><path d="M262.218 185.092L241.709 183.852L241.754 183.528L255.896 80.9566C257.384 75.3231 262.986 71.858 268.654 73.0302C271.618 73.6432 274.127 75.3982 275.719 77.9723C277.311 80.5465 277.761 83.5751 276.986 86.5008L262.218 185.092Z" fill="#E9ECEF"></path><path d="M288.093 101.387C289.095 101.387 289.907 100.575 289.907 99.5735C289.907 98.5718 289.095 97.7598 288.093 97.7598C287.091 97.7598 286.279 98.5718 286.279 99.5735C286.279 100.575 287.091 101.387 288.093 101.387Z" fill="#D6DBE4"></path><path d="M288.093 115.12C289.095 115.12 289.907 114.308 289.907 113.306C289.907 112.304 289.095 111.492 288.093 111.492C287.091 111.492 286.279 112.304 286.279 113.306C286.279 114.308 287.091 115.12 288.093 115.12Z" fill="#D6DBE4"></path><path d="M288.093 128.852C289.095 128.852 289.907 128.04 289.907 127.038C289.907 126.037 289.095 125.225 288.093 125.225C287.091 125.225 286.279 126.037 286.279 127.038C286.279 128.04 287.091 128.852 288.093 128.852Z" fill="#D6DBE4"></path><path d="M288.093 142.584C289.095 142.584 289.907 141.772 289.907 140.771C289.907 139.769 289.095 138.957 288.093 138.957C287.091 138.957 286.279 139.769 286.279 140.771C286.279 141.772 287.091 142.584 288.093 142.584Z" fill="#D6DBE4"></path><path d="M288.093 156.317C289.095 156.317 289.907 155.505 289.907 154.503C289.907 153.501 289.095 152.689 288.093 152.689C287.091 152.689 286.279 153.501 286.279 154.503C286.279 155.505 287.091 156.317 288.093 156.317Z" fill="#D6DBE4"></path><path d="M288.093 170.049C289.095 170.049 289.907 169.237 289.907 168.236C289.907 167.234 289.095 166.422 288.093 166.422C287.091 166.422 286.279 167.234 286.279 168.236C286.279 169.237 287.091 170.049 288.093 170.049Z" fill="#D6DBE4"></path><path d="M288.093 183.782C289.095 183.782 289.907 182.97 289.907 181.968C289.907 180.966 289.095 180.154 288.093 180.154C287.091 180.154 286.279 180.966 286.279 181.968C286.279 182.97 287.091 183.782 288.093 183.782Z" fill="#D6DBE4"></path><path d="M288.093 197.514C289.095 197.514 289.907 196.702 289.907 195.7C289.907 194.699 289.095 193.887 288.093 193.887C287.091 193.887 286.279 194.699 286.279 195.7C286.279 196.702 287.091 197.514 288.093 197.514Z" fill="#D6DBE4"></path><path d="M290.845 59.7222C300.215 59.7222 307.81 52.1269 307.81 42.7576C307.81 33.3883 300.215 25.793 290.845 25.793C281.476 25.793 273.881 33.3883 273.881 42.7576C273.881 52.1269 281.476 59.7222 290.845 59.7222Z" fill="#E9C7C7"></path><path d="M299.737 22.953C300.55 24.6063 299.26 26.6715 297.554 27.3666C295.848 28.0617 293.921 27.7801 292.101 27.4907C290.282 27.2014 288.351 26.927 286.65 27.6344C284.449 28.5498 283.208 30.8458 282.139 32.9765C280.143 36.9541 278.147 40.9317 276.151 44.9093C275.176 46.8526 274.179 48.8834 274.16 51.0576C274.126 55.0486 277.292 58.2381 278.995 61.8474C281.069 66.242 280.898 71.6276 278.549 75.8817C276.201 80.1359 271.734 83.15 266.91 83.7363C265.641 83.8906 264.298 83.8739 263.157 83.2972C262.016 82.7206 261.145 81.4614 261.356 80.2005C261.769 77.7342 265.538 77.1579 266.23 74.7548C266.591 73.5004 265.951 72.1608 265.089 71.181C264.226 70.2012 263.135 69.4369 262.313 68.4235C260.415 66.0865 260.289 62.479 262.018 60.0151C263.034 58.567 264.606 57.4911 265.262 55.8485C265.822 54.4484 265.619 52.8746 265.407 51.3817C265.135 49.4634 264.862 47.5451 264.59 45.6268C264.272 43.3887 263.959 41.0704 264.587 38.8988C266.026 33.9225 271.645 31.5854 274.941 27.5882C276.472 25.7307 277.502 23.4968 279.073 21.6728C281.709 18.6118 285.859 16.9232 289.884 17.2743C293.908 17.6253 297.703 20.0069 299.77 23.4781" fill="#262A2E"></path><path d="M297.058 23.2676C296.23 23.564 295.922 24.6435 296.161 25.4908C296.399 26.338 297.024 27.0113 297.596 27.6804C304.063 35.2491 305.566 46.6973 301.272 55.679C300.13 58.068 298.608 60.3164 297.992 62.8917C297.544 64.7656 297.568 66.8211 296.529 68.4434C295.47 70.095 293.373 71.2016 293.165 73.1523C293.032 74.404 293.795 75.62 294.818 76.3539C295.841 77.0878 297.09 77.4236 298.319 77.6974C301.513 78.409 304.778 78.7975 308.05 78.855C309.116 78.8738 310.217 78.8507 311.195 78.4257C312.173 78.0008 313.009 77.0791 313.02 76.0125C313.028 75.1742 312.545 74.4008 312.483 73.5647C312.298 71.0594 315.67 69.7266 316.326 67.3019C316.758 65.7078 315.908 64.0674 315.001 62.6867C314.095 61.306 313.061 59.8562 313.083 58.2048C313.104 56.6239 314.096 55.2316 314.482 53.6982C315.015 51.5773 314.36 49.3589 313.71 47.2707C313.158 45.4954 312.605 43.7201 312.053 41.9448C311.465 40.0575 310.878 38.1703 310.291 36.2831C309.265 32.9884 308.189 29.5982 305.97 26.9557C303.751 24.3132 300.074 22.5813 296.797 23.6601" fill="#262A2E"></path><path d="M308.618 89.0043L307.455 88.6654C309.878 80.3593 304.654 64.859 304.602 64.7034L305.748 64.3125C305.969 64.9628 311.147 80.3344 308.618 89.0043Z" fill="#262A2E"></path><path d="M308.036 98.5444C310.83 98.5444 313.095 96.2792 313.095 93.4851C313.095 90.6909 310.83 88.4258 308.036 88.4258C305.242 88.4258 302.977 90.6909 302.977 93.4851C302.977 96.2792 305.242 98.5444 308.036 98.5444Z" fill="#262A2E"></path><path d="M274.794 111.397H271.726C271.391 111.397 271.12 111.126 271.12 110.792C271.12 110.457 271.391 110.186 271.726 110.186H274.794C275.64 110.186 276.434 109.857 277.031 109.258C277.628 108.66 277.956 107.865 277.954 107.02L277.917 88.1208C277.917 84.0152 274.578 80.6761 270.474 80.6761C266.369 80.6761 263.03 84.0152 263.03 88.1196L263.067 105.809C263.07 107.535 264.477 108.949 266.203 108.963L268.309 108.979C268.643 108.981 268.912 109.254 268.91 109.589C268.908 109.922 268.637 110.19 268.304 110.19H268.3L266.194 110.174C263.807 110.156 261.86 108.198 261.856 105.811L261.818 88.1208C261.818 83.3475 265.701 79.4648 270.474 79.4648C275.246 79.4648 279.128 83.3475 279.128 88.1196L279.166 107.017C279.168 108.186 278.714 109.286 277.888 110.114C277.063 110.941 275.963 111.397 274.794 111.397Z" fill="#262A2E"></path><path d="M268.305 111.73C269.49 111.73 270.451 110.769 270.451 109.584C270.451 108.399 269.49 107.438 268.305 107.438C267.119 107.438 266.158 108.399 266.158 109.584C266.158 110.769 267.119 111.73 268.305 111.73Z" fill="#262A2E"></path><path d="M271.725 112.937C272.91 112.937 273.871 111.976 273.871 110.791C273.871 109.606 272.91 108.645 271.725 108.645C270.539 108.645 269.578 109.606 269.578 110.791C269.578 111.976 270.539 112.937 271.725 112.937Z" fill="#262A2E"></path><path d="M147.811 79.9257L146.648 79.5868C149.071 71.2807 143.906 55.5403 143.854 55.3848L145.307 56.4804C145.529 57.1306 150.34 71.2559 147.811 79.9257Z" fill="#262A2E"></path><path d="M106.938 81.4024L108.101 81.0635C105.679 72.7574 110.902 57.2571 110.955 57.1016L109.711 57.9347C109.489 58.585 104.41 72.7326 106.938 81.4024Z" fill="#262A2E"></path><path d="M147.229 89.4662C150.023 89.4662 152.288 87.2011 152.288 84.4069C152.288 81.6128 150.023 79.3477 147.229 79.3477C144.435 79.3477 142.17 81.6128 142.17 84.4069C142.17 87.2011 144.435 89.4662 147.229 89.4662Z" fill="#262A2E"></path><path d="M112.333 112.514H109.265C108.93 112.514 108.659 112.243 108.659 111.909C108.659 111.574 108.93 111.303 109.265 111.303H112.333C113.179 111.303 113.973 110.974 114.57 110.375C115.167 109.777 115.495 108.982 115.494 108.137L115.456 89.2379C115.456 85.1324 112.117 81.7932 108.013 81.7932C103.908 81.7932 100.569 85.1324 100.569 89.2368L100.606 106.926C100.609 108.652 102.016 110.067 103.742 110.08L105.848 110.096C106.182 110.099 106.451 110.371 106.449 110.706C106.447 111.039 106.176 111.307 105.843 111.307H105.839L103.733 111.291C101.346 111.273 99.3994 109.315 99.3947 106.929L99.3574 89.2379C99.3574 84.4647 103.24 80.582 108.013 80.582C112.785 80.582 116.667 84.4646 116.667 89.2368L116.705 108.134C116.707 109.304 116.253 110.403 115.427 111.231C114.602 112.058 113.502 112.514 112.333 112.514Z" fill="#262A2E"></path><path d="M105.844 112.848C107.029 112.848 107.99 111.887 107.99 110.701C107.99 109.516 107.029 108.555 105.844 108.555C104.658 108.555 103.697 109.516 103.697 110.701C103.697 111.887 104.658 112.848 105.844 112.848Z" fill="#262A2E"></path><path d="M109.264 114.057C110.449 114.057 111.41 113.096 111.41 111.91C111.41 110.725 110.449 109.764 109.264 109.764C108.078 109.764 107.117 110.725 107.117 111.91C107.117 113.096 108.078 114.057 109.264 114.057Z" fill="#262A2E"></path></g><defs><clipPath id="clip0_194_18037"><rect width="419.492" height="361.517" fill="white"></rect></clipPath></defs></svg>