<svg xmlns="http://www.w3.org/2000/svg" width="450" height="374" viewBox="0 0 450 374" fill="none"><g clip-path="url(#clip0_194_17980)"><path opacity="0.998" d="M406.86 141.951H380.869V155.447H406.86V141.951Z" fill="white"></path><path opacity="0.998" d="M387.866 43.4844H361.875V56.9797H387.866V43.4844Z" fill="white"></path><path opacity="0.998" d="M406.36 58.9805H380.369V72.4758H406.36V58.9805Z" fill="white"></path><path opacity="0.998" d="M356.378 44.4844H330.387V57.9797H356.378V44.4844Z" fill="white"></path><path opacity="0.998" d="M25.991 189.436H0V202.931H25.991V189.436Z" fill="white"></path><path opacity="0.998" d="M408.36 75.4746H382.369V88.97H408.36V75.4746Z" fill="white"></path><path opacity="0.998" d="M374.87 59.9785H348.879V73.4739H374.87V59.9785Z" fill="white"></path><path opacity="0.998" d="M438.348 178.439H412.357V191.935H438.348V178.439Z" fill="white"></path><path opacity="0.998" d="M406.86 179.438H380.869V192.933H406.86V179.438Z" fill="white"></path><path opacity="0.998" d="M25.991 141.951H0V155.447H25.991V141.951Z" fill="white"></path><path opacity="0.998" d="M44.4852 157.445H18.4941V170.941H44.4852V157.445Z" fill="white"></path><path opacity="0.998" d="M184.936 0H158.945V13.4954H184.936V0Z" fill="white"></path><path opacity="0.998" d="M389.866 248.914H363.875V262.409H389.866V248.914Z" fill="white"></path><path opacity="0.998" d="M46.4832 173.939H20.4922V187.435H46.4832V173.939Z" fill="white"></path><path opacity="0.998" d="M203.431 15.4941H177.439V28.9895H203.431V15.4941Z" fill="white"></path><path opacity="0.998" d="M108.462 106.963H82.4707V120.458H108.462V106.963Z" fill="white"></path><path opacity="0.998" d="M126.956 122.457H100.965V135.952H126.956V122.457Z" fill="white"></path><path opacity="0.998" d="M176.438 113.961H150.447V127.456H176.438V113.961Z" fill="white"></path><path opacity="0.998" d="M128.956 138.953H102.965V152.448H128.956V138.953Z" fill="white"></path><path opacity="0.998" d="M424.854 248.914H398.863V262.409H424.854V248.914Z" fill="white"></path><path d="M251.454 28.7754C261.471 28.7754 271.079 32.7549 278.162 39.8386C285.246 46.9222 289.226 56.5296 289.226 66.5474V82.6618H213.682V66.5474C213.682 56.5296 217.661 46.9222 224.745 39.8386C231.828 32.7549 241.436 28.7754 251.454 28.7754Z" fill="#8299C5"></path><path d="M251.719 117.529C275.498 117.529 294.774 104.283 294.774 87.9442C294.774 71.6049 275.498 58.3594 251.719 58.3594C227.941 58.3594 208.664 71.6049 208.664 87.9442C208.664 104.283 227.941 117.529 251.719 117.529Z" fill="#8299C5"></path><path d="M224.118 116.604C224.118 116.604 233.115 163.623 224.118 176.304C215.122 188.984 251.609 194.003 251.609 194.003L289.376 180.267L294.659 146.454C294.659 146.454 271.667 133.508 276.43 107.357L224.118 116.604Z" fill="#E9C7C7"></path><path d="M335.589 275.1C335.589 275.1 337.968 285.401 325.023 287.251C317.379 288.375 309.605 288.282 301.991 286.976L299.137 261.1H329.251L335.589 275.1Z" fill="#E9C7C7"></path><path d="M106.998 261.915C106.998 261.915 101.28 285.152 114.226 287.251C127.171 289.35 174.705 289.365 174.705 289.365V261.875L153.182 266.473L132.979 247.1L106.998 261.915Z" fill="#E9C7C7"></path><path opacity="0.1" d="M226.896 131.795L176.309 142.491C176.309 142.491 157.025 143.286 144.609 168.907C132.194 194.528 105.248 267.703 105.248 267.703C105.248 267.703 128.24 244.456 155.176 269.287L173.14 236.799L169.176 288.311H308.368V264.004C308.368 264.004 337.423 279.589 335.314 288.306C335.314 288.306 360.18 224.238 354.807 195.123C353.19 186.122 352.198 177.02 351.838 167.882C351.521 160.356 348.882 153.113 344.284 147.147C339.686 141.18 333.354 136.783 326.157 134.559C323.538 133.754 320.659 132.999 317.46 132.325C287.61 125.987 279.973 132.325 279.973 132.325C279.973 132.325 274.19 151.138 274.295 159.665C274.425 170.626 258.71 177.894 258.71 177.894C258.71 177.894 235.463 172.346 234.409 167.857C233.354 163.369 225.037 137.078 226.896 131.795Z" fill="#262A2E"></path><path d="M226.897 130.74L176.31 141.436C176.31 141.436 157.026 142.231 144.611 167.852C132.195 193.474 105.244 266.658 105.244 266.658C105.244 266.658 128.236 243.411 155.172 268.243L173.136 235.754L169.172 287.251H308.369V262.95C308.369 262.95 337.424 278.534 335.315 287.251C335.315 287.251 360.181 223.183 354.808 194.068C353.191 185.068 352.199 175.966 351.839 166.828C351.522 159.302 348.883 152.058 344.285 146.092C339.687 140.125 333.355 135.728 326.158 133.504C323.539 132.699 320.66 131.945 317.461 131.27C287.611 124.932 279.974 131.27 279.974 131.27C279.974 131.27 274.191 150.083 274.296 158.611C274.426 169.572 258.711 176.839 258.711 176.839C258.711 176.839 235.464 171.291 234.41 166.803C233.355 162.314 225.038 136.023 226.897 130.74Z" fill="#5A8DEE"></path><path opacity="0.1" d="M278.59 128.496C276.465 122.48 275.989 116.004 277.21 109.742L224.898 118.984C224.898 118.984 225.653 122.938 226.508 128.861C229.888 132.368 233.946 135.151 238.435 137.041C242.925 138.931 247.751 139.888 252.622 139.853C257.493 139.819 262.306 138.795 266.768 136.842C271.231 134.89 275.249 132.05 278.58 128.496H278.59Z" fill="#262A2E"></path><path d="M287.511 101.551C287.568 106.268 286.696 110.951 284.943 115.331C283.191 119.711 280.593 123.703 277.297 127.079C274.002 130.455 270.074 133.149 265.737 135.007C261.401 136.865 256.741 137.851 252.023 137.908C247.306 137.965 242.624 137.093 238.243 135.34C233.863 133.588 229.871 130.989 226.495 127.694C219.677 121.039 215.781 111.948 215.666 102.42C215.671 102.13 215.671 101.841 215.671 101.551C215.668 96.3219 216.808 91.1556 219.009 86.4128C221.21 81.6699 224.42 77.4649 228.415 74.0915C232.41 70.7181 237.094 68.2577 242.138 66.8822C247.183 65.5067 252.467 65.2493 257.622 66.1278C265.579 67.4829 272.848 71.4805 278.254 77.4751C283.66 83.4698 286.888 91.1115 287.416 99.1665C287.48 99.9562 287.511 100.751 287.511 101.551Z" fill="#E9C7C7"></path><path d="M239.073 67.8757L239.123 67.8457C232.235 70.3901 226.294 74.9854 222.099 81.012C217.905 87.0386 215.66 94.2066 215.666 101.549C215.666 101.839 215.666 102.129 215.666 102.419C216.783 102.389 217.881 102.125 218.89 101.644C227.647 97.5555 232.885 85.0498 234.964 76.3278C235.714 73.2239 236.419 69.6901 239.073 67.8757Z" fill="#262A2E"></path><path d="M266.568 68.8869C263.725 67.5806 260.722 66.6546 257.636 66.1328C260.167 66.715 262.426 68.1346 264.049 70.1614C264.844 71.243 265.504 72.4181 266.013 73.6602C261.232 71.5698 256.054 70.543 250.837 70.6509C245.621 70.7587 240.489 71.9987 235.799 74.285C238.053 79.2283 245.046 81.9224 249.714 83.7268C254.826 85.6994 259.991 87.5038 265.209 89.1399L260.59 85.3912L271.022 87.0506C271.134 84.9746 270.887 82.8948 270.292 80.9027C272.291 82.5122 274.94 83.052 277.11 84.4015C281.173 86.9656 282.868 91.8989 285.082 96.1725C285.667 97.3021 286.356 98.4567 287.411 99.1714C286.985 92.7148 284.823 86.493 281.155 81.1627C277.486 75.8323 272.447 71.5912 266.568 68.8869Z" fill="#262A2E"></path><path d="M211.566 94.813C211.566 94.813 248.554 48.8288 291.344 94.813L287.645 84.5116C287.645 84.5116 267.567 55.1917 253.307 61.5195C239.047 67.8473 225.042 72.3507 225.042 72.3507L211.566 94.813Z" fill="#8299C5"></path><path opacity="0.1" d="M181.187 193.873C181.187 193.873 173.264 215.006 184.356 234.024C195.447 253.043 174.584 260.97 174.584 260.97" fill="#262A2E"></path><path opacity="0.1" d="M309.568 174.855C309.568 174.855 323.303 192.289 314.321 207.874C305.339 223.459 305.869 260.971 305.869 260.971" fill="#262A2E"></path><path d="M169.037 276.555H321.719C325.082 276.555 328.308 277.891 330.686 280.269C333.064 282.647 334.4 285.872 334.4 289.235H156.361C156.361 285.873 157.697 282.648 160.074 280.271C162.451 277.893 165.675 276.556 169.037 276.555Z" fill="#262A2E"></path><path d="M184.571 189.379H306.19C308.749 189.379 311.284 189.883 313.649 190.863C316.014 191.842 318.163 193.278 319.973 195.088C321.783 196.898 323.219 199.047 324.199 201.412C325.179 203.777 325.683 206.312 325.683 208.872V279.458H165.078V208.872C165.078 203.702 167.132 198.744 170.788 195.088C174.443 191.433 179.401 189.379 184.571 189.379Z" fill="#262A2E"></path><path d="M245.246 247.895C250.499 247.895 254.758 243.636 254.758 238.383C254.758 233.13 250.499 228.871 245.246 228.871C239.993 228.871 235.734 233.13 235.734 238.383C235.734 243.636 239.993 247.895 245.246 247.895Z" fill="#E9ECEF"></path><path opacity="0.1" d="M213.682 74.0748C213.682 74.0748 250.029 37.7473 289.231 73.41" stroke="#262A2E" stroke-miterlimit="10"></path><path d="M298.412 71.7598H294.764V92.4476H298.412V71.7598Z" fill="#8299C5"></path><path d="M289.895 85.1465C293.23 85.1465 296.428 86.4714 298.787 88.8298C301.145 91.1882 302.47 94.3869 302.47 97.7221V98.5319C302.47 101.867 301.145 105.066 298.787 107.424C296.428 109.783 293.23 111.108 289.895 111.108V85.1465Z" fill="#5A8DEE"></path><path d="M293.139 86.7707C293.139 85.2027 291.868 83.9316 290.3 83.9316C288.732 83.9316 287.461 85.2027 287.461 86.7707V109.488C287.461 111.056 288.732 112.327 290.3 112.327C291.868 112.327 293.139 111.056 293.139 109.488V86.7707Z" fill="#262A2E"></path><path d="M204.125 92.8535H207.773V72.1656H204.125V92.8535Z" fill="#8299C5"></path><path d="M212.643 111.512C209.307 111.512 206.109 110.187 203.75 107.828C201.392 105.47 200.067 102.271 200.067 98.936V98.1263C200.067 96.4749 200.392 94.8396 201.024 93.3138C201.656 91.7881 202.582 90.4018 203.75 89.234C204.918 88.0662 206.304 87.1399 207.83 86.5079C209.356 85.8759 210.991 85.5507 212.643 85.5507V111.512Z" fill="#5A8DEE"></path><path d="M209.398 109.888C209.398 111.455 210.669 112.727 212.237 112.727C213.805 112.727 215.076 111.455 215.076 109.888V87.1704C215.076 85.6024 213.805 84.3313 212.237 84.3313C210.669 84.3313 209.398 85.6024 209.398 87.1704V109.888Z" fill="#262A2E"></path><path d="M294.333 49.6487C289.39 39.3722 278.623 26.9465 255.416 25.9519V25.9219H255.136L246.914 26.3117V26.3517C223.862 27.4114 213.146 39.7921 208.218 50.0336C204.935 56.9764 203.193 64.5468 203.109 72.2259L205.948 72.1559L208.787 72.091C208.91 65.2543 210.482 58.5215 213.401 52.3378C219.659 39.4822 231.175 32.6496 247.624 32.0148L254.897 31.6099C271.356 32.2397 282.877 39.0823 289.13 51.9329C292.053 58.1189 293.629 64.8553 293.753 71.6961L296.592 71.7611L299.431 71.8311C299.35 64.156 297.61 56.5892 294.333 49.6487Z" fill="#5A8DEE"></path><path d="M424.034 289.4H36.8125V393.365H424.034V289.4Z" fill="#E9ECEF"></path><path opacity="0.1" d="M424.034 296.398H36.8125V307.395H424.034V296.398Z" fill="#262A2E"></path><path d="M450 287.9H10.8359V301.396H450V287.9Z" fill="#E9ECEF"></path></g><defs><clipPath id="clip0_194_17980"><rect width="450" height="393.365" fill="white"></rect></clipPath></defs></svg>